<svg width="802" height="787" viewBox="0 0 802 787" fill="none" xmlns="http://www.w3.org/2000/svg">
<g opacity="0.05" filter="url(#filter0_f_587_640)">
<path fill-rule="evenodd" clip-rule="evenodd" d="M667.646 414.806L667.395 418.431L666.847 422.044L666.007 425.636L664.878 429.199L663.465 432.722L661.775 436.199L659.817 439.62L657.601 442.979L655.138 446.267L652.44 449.48L649.521 452.61L646.396 455.654L643.081 458.606L639.592 461.463L635.945 464.223L632.159 466.883L628.25 469.443L624.235 471.902L620.133 474.261L615.958 476.519L611.728 478.68L607.457 480.744L603.159 482.714L598.847 484.594L594.534 486.385L590.232 488.092L585.95 489.718L581.7 491.268L577.488 492.744L573.324 494.152L569.215 495.496L565.168 496.78L561.188 498.009L557.284 499.187L553.46 500.321L549.721 501.416L546.074 502.476L542.523 503.508L539.073 504.518L535.73 505.511L532.496 506.495L529.377 507.476L526.376 508.46L523.496 509.455L520.74 510.466L518.111 511.501L515.61 512.567L513.24 513.67L511.001 514.817L508.893 516.015L506.916 517.269L505.07 518.586L503.351 519.972L501.76 521.43L500.292 522.968L498.944 524.588L497.711 526.295L496.59 528.091L495.574 529.981L494.658 531.965L493.835 534.046L493.098 536.223L492.439 538.497L491.851 540.867L491.325 543.331L490.851 545.888L490.423 548.534L490.029 551.266L489.662 554.079L489.311 556.969L488.967 559.928L488.622 562.952L488.265 566.032L487.888 569.162L487.482 572.333L487.039 575.537L486.55 578.766L486.008 582.009L485.407 585.258L484.739 588.503L483.998 591.735L483.179 594.943L482.277 598.119L481.288 601.253L480.209 604.336L479.036 607.358L477.768 610.313L476.403 613.19L474.941 615.983L473.382 618.686L471.725 621.291L469.974 623.793L468.129 626.187L466.193 628.469L464.168 630.636L462.06 632.685L459.871 634.615L457.605 636.425L455.268 638.116L452.864 639.687L450.398 641.141L447.875 642.481L445.301 643.709L442.68 644.829L440.019 645.846L437.321 646.764L434.592 647.589L431.837 648.325L429.058 648.977L426.261 649.552L423.449 650.052L420.625 650.483L417.791 650.847L414.95 651.149L412.104 651.389L409.255 651.568L406.403 651.686L403.55 651.742L400.697 651.734L397.845 651.661L394.995 651.52L392.148 651.308L389.306 651.024L386.47 650.663L383.641 650.225L380.821 649.708L378.013 649.109L375.217 648.429L372.437 647.666L369.673 646.822L366.929 645.896L364.206 644.89L361.507 643.807L358.833 642.647L356.186 641.416L353.569 640.115L350.982 638.75L348.428 637.325L345.907 635.845L343.42 634.315L340.969 632.741L338.554 631.129L336.174 629.486L333.831 627.817L331.522 626.13L329.249 624.43L327.01 622.726L324.803 621.022L322.627 619.326L320.481 617.644L318.362 615.982L316.268 614.347L314.197 612.744L312.144 611.179L310.109 609.657L308.087 608.183L306.075 606.762L304.07 605.398L302.067 604.094L300.065 602.854L298.057 601.682L296.041 600.58L294.013 599.551L291.969 598.596L289.904 597.716L287.816 596.914L285.699 596.189L283.551 595.543L281.367 594.975L279.143 594.485L276.877 594.072L274.564 593.736L272.2 593.475L269.783 593.287L267.31 593.171L264.777 593.125L262.181 593.146L259.519 593.231L256.79 593.379L253.99 593.585L251.117 593.846L248.169 594.16L245.145 594.522L242.042 594.929L238.859 595.376L235.595 595.859L232.248 596.375L228.819 596.918L225.307 597.484L221.711 598.067L218.032 598.664L214.269 599.269L210.425 599.875L206.499 600.479L202.494 601.074L198.412 601.654L194.255 602.214L190.025 602.747L185.727 603.246L181.364 603.705L176.942 604.118L172.464 604.477L167.938 604.775L163.371 605.004L158.77 605.156L154.146 605.222L149.509 605.193L144.872 605.058L140.248 604.809L135.65 604.436L131.095 603.93L126.598 603.281L122.175 602.481L117.843 601.522L113.618 600.399L109.518 599.105L105.558 597.636L101.754 595.988L98.1226 594.16L94.6774 592.151L91.4323 589.96L88.4004 587.59L85.5934 585.042L83.0219 582.322L80.6954 579.433L78.6221 576.382L76.8085 573.176L75.2602 569.823L73.981 566.331L72.9733 562.71L72.2381 558.971L71.7747 555.123L71.5812 551.178L71.654 547.147L71.9882 543.042L72.5773 538.876L73.4137 534.659L74.4882 530.405L75.7905 526.124L77.309 521.83L79.0312 517.532L80.9432 513.242L83.0305 508.971L85.2774 504.728L87.6676 500.524L90.1841 496.367L92.8094 492.265L95.5253 488.226L98.3133 484.256L101.155 480.361L104.031 476.547L106.923 472.817L109.811 469.174L112.678 465.621L115.504 462.16L118.272 458.791L120.963 455.513L123.562 452.326L126.052 449.227L128.417 446.213L130.642 443.282L132.714 440.429L134.62 437.648L136.349 434.934L137.889 432.282L139.233 429.683L140.371 427.132L141.297 424.62L142.006 422.14L142.493 419.683L142.757 417.241L142.795 414.806L142.609 412.369L142.2 409.922L141.57 407.457L140.725 404.966L139.669 402.44L138.41 399.872L136.956 397.255L135.317 394.582L133.502 391.847L131.524 389.045L129.395 386.17L127.128 383.219L124.738 380.186L122.239 377.07L119.647 373.869L116.978 370.579L114.248 367.202L111.475 363.737L108.674 360.184L105.864 356.546L103.061 352.825L100.281 349.024L97.5394 345.145L94.8512 341.194L92.2291 337.175L89.6847 333.09L87.2283 328.946L84.8703 324.747L82.621 320.499L80.4903 316.206L78.4881 311.877L76.6233 307.517L74.9045 303.132L73.3395 298.731L71.9351 294.32L70.6975 289.906L69.6318 285.496L68.7423 281.098L68.0324 276.718L67.5045 272.363L67.1602 268.039L67 263.753L67.0238 259.51L67.2307 255.317L67.6188 251.177L68.1858 247.097L68.9285 243.08L69.8435 239.131L70.9264 235.252L72.1728 231.448L73.5775 227.722L75.1353 224.074L76.8405 220.509L78.6874 217.027L80.6699 213.629L82.7821 210.317L85.0177 207.092L87.3708 203.953L89.8352 200.902L92.4049 197.938L95.0741 195.061L97.8371 192.271L100.688 189.568L103.623 186.95L106.635 184.418L109.72 181.97L112.874 179.607L116.091 177.328L119.369 175.132L122.703 173.02L126.089 170.99L129.525 169.042L133.008 167.177L136.534 165.394L140.101 163.695L143.707 162.078L147.349 160.546L151.025 159.098L154.735 157.736L158.475 156.46L162.245 155.272L166.042 154.174L169.866 153.166L173.715 152.251L177.587 151.431L181.482 150.706L185.397 150.079L189.331 149.552L193.283 149.127L197.25 148.805L201.232 148.589L205.227 148.48L209.231 148.48L213.244 148.59L217.263 148.811L221.285 149.145L225.309 149.591L229.33 150.151L233.348 150.825L237.357 151.612L241.356 152.511L245.342 153.522L249.31 154.643L253.257 155.872L257.181 157.206L261.077 158.644L264.943 160.18L268.774 161.813L272.568 163.537L276.321 165.348L280.029 167.241L283.691 169.211L287.302 171.25L290.86 173.351L294.36 175.502L297.8 177.692L301.176 179.906L304.486 182.129L307.728 184.348L310.9 186.545L314.001 188.707L317.031 190.818L319.991 192.862L322.883 194.827L325.708 196.696L328.469 198.457L331.169 200.096L333.813 201.602L336.404 202.961L338.948 204.163L341.451 205.199L343.918 206.059L346.356 206.735L348.773 207.222L351.175 207.512L353.569 207.602L355.964 207.489L358.366 207.171L360.785 206.647L363.226 205.918L365.699 204.987L368.211 203.856L370.769 202.532L373.379 201.019L376.049 199.326L378.785 197.46L381.591 195.432L384.474 193.253L387.438 190.935L390.486 188.49L393.623 185.933L396.849 183.279L400.167 180.544L403.577 177.743L407.079 174.894L410.673 172.014L414.356 169.122L418.126 166.235L421.979 163.372L425.91 160.552L429.915 157.793L433.987 155.113L438.118 152.531L442.301 150.065L446.528 147.731L450.789 145.548L455.074 143.53L459.373 141.693L463.675 140.053L467.968 138.621L472.241 137.412L476.482 136.435L480.677 135.702L484.816 135.221L488.886 135L492.874 135.044L496.768 135.359L500.558 135.947L504.231 136.81L507.778 137.948L511.187 139.359L514.45 141.041L517.559 142.989L520.504 145.196L523.281 147.656L525.883 150.358L528.306 153.294L530.546 156.451L532.603 159.817L534.474 163.377L536.161 167.117L537.666 171.022L538.992 175.075L540.143 179.259L541.125 183.558L541.945 187.954L542.61 192.43L543.129 196.968L543.511 201.553L543.767 206.169L543.905 210.8L543.937 215.433L543.873 220.054L543.723 224.652L543.499 229.214L543.212 233.728L542.875 238.184L542.5 242.573L542.098 246.885L541.682 251.113L541.263 255.248L540.855 259.285L540.47 263.218L540.119 267.042L539.815 270.752L539.569 274.345L539.395 277.818L539.302 281.169L539.303 284.398L539.409 287.503L539.629 290.485L539.973 293.345L540.452 296.085L541.073 298.708L541.844 301.218L542.773 303.618L543.865 305.913L545.126 308.109L546.561 310.212L548.172 312.229L549.961 314.167L551.93 316.034L554.078 317.838L556.404 319.588L558.906 321.292L561.579 322.96L564.42 324.602L567.421 326.226L570.575 327.842L573.874 329.46L577.307 331.088L580.865 332.737L584.536 334.415L588.305 336.13L592.161 337.892L596.087 339.707L600.068 341.583L604.089 343.527L608.132 345.544L612.18 347.641L616.216 349.822L620.22 352.09L624.175 354.45L628.062 356.902L631.862 359.45L635.559 362.093L639.132 364.831L642.564 367.664L645.839 370.589L648.939 373.604L651.848 376.704L654.551 379.887L657.034 383.147L659.283 386.477L661.285 389.873L663.031 393.326L664.509 396.829L665.712 400.375L666.631 403.954L667.263 407.558L667.602 411.179L667.646 414.806Z" fill="#003BFD"/>
</g>
<defs>
<filter id="filter0_f_587_640" x="-67.3" y="0.699997" width="869.246" height="785.342" filterUnits="userSpaceOnUse" color-interpolation-filters="sRGB">
<feFlood flood-opacity="0" result="BackgroundImageFix"/>
<feBlend mode="normal" in="SourceGraphic" in2="BackgroundImageFix" result="shape"/>
<feGaussianBlur stdDeviation="67.15" result="effect1_foregroundBlur_587_640"/>
</filter>
</defs>
</svg>
